HIERARCHY
ROOT Hips
{
	OFFSET 0.000000 0.000000 0.000000
	CHANNELS 6 Xposition Yposition Zposition Zrotation Yrotation Xrotation 
	JOINT LowerBack
	{
		OFFSET 0.000000 0.000000 0.000000
		CHANNELS 3 Zrotation Yrotation Xrotation
		JOINT Spine
		{
			OFFSET 0.028270 2.035590 -0.193380
			CHANNELS 3 Zrotation Yrotation Xrotation
			JOINT Spine1
			{
				OFFSET 0.056720 2.048850 -0.042750
				CHANNELS 3 Zrotation Yrotation Xrotation
				JOINT Neck
				{
					OFFSET 0.000000 0.000000 0.000000
					CHANNELS 3 Zrotation Yrotation Xrotation
					JOINT Neck1
					{
						OFFSET -0.054170 1.746240 0.172020
						CHANNELS 3 Zrotation Yrotation Xrotation
						JOINT Head
						{
							OFFSET 0.104070 1.761360 -0.123970
							CHANNELS 3 Zrotation Yrotation Xrotation
							End Site
							{
								OFFSET 0.000000 0.000000 0.000000
							}
						}
					}
				}
				JOINT LeftShoulder
				{
					OFFSET 0.000000 0.000000 0.000000
					CHANNELS 3 Zrotation Yrotation Xrotation
					JOINT LeftArm
					{
						OFFSET 3.362410 1.200890 -0.311210
						CHANNELS 3 Zrotation Yrotation Xrotation
						JOINT LeftForeArm
						{
							OFFSET 4.983000 -0.000000 -0.000000
							CHANNELS 3 Zrotation Yrotation Xrotation
							JOINT LeftHand
							{
								OFFSET 3.483560 -0.000000 -0.000000
								CHANNELS 3 Zrotation Yrotation Xrotation
								JOINT LeftFingerBase
								{
									OFFSET 0.000000 0.000000 0.000000
									CHANNELS 3 Zrotation Yrotation Xrotation
									JOINT LeftHandIndex1
									{
										OFFSET 0.715260 -0.000000 -0.000000
										CHANNELS 3 Zrotation Yrotation Xrotation
										End Site
										{
											OFFSET 0.000000 0.000000 0.000000
										}
									}
								}
								JOINT LThumb
								{
									OFFSET 0.000000 0.000000 0.000000
									CHANNELS 3 Zrotation Yrotation Xrotation
									End Site
									{
										OFFSET 0.000000 0.000000 0.000000
									}
								}
							}
						}
					}
				}
				JOINT RightShoulder
				{
					OFFSET 0.000000 0.000000 0.000000
					CHANNELS 3 Zrotation Yrotation Xrotation
					JOINT RightArm
					{
						OFFSET -3.136600 1.374050 -0.404650
						CHANNELS 3 Zrotation Yrotation Xrotation
						JOINT RightForeArm
						{
							OFFSET -5.241900 -0.000000 -0.000000
							CHANNELS 3 Zrotation Yrotation Xrotation
							JOINT RightHand
							{
								OFFSET -3.444170 -0.000000 -0.000000
								CHANNELS 3 Zrotation Yrotation Xrotation
								JOINT RightFingerBase
								{
									OFFSET 0.000000 0.000000 0.000000
									CHANNELS 3 Zrotation Yrotation Xrotation
									JOINT RightHandIndex1
									{
										OFFSET -0.622530 -0.000000 -0.000000
										CHANNELS 3 Zrotation Yrotation Xrotation
										End Site
										{
											OFFSET 0.000000 0.000000 0.000000
										}
									}
								}
								JOINT RThumb
								{
									OFFSET 0.000000 0.000000 0.000000
									CHANNELS 3 Zrotation Yrotation Xrotation
									End Site
									{
										OFFSET 0.000000 0.000000 0.000000
									}
								}
							}
						}
					}
				}
			}
		}
	}
}
}
MOTION
Frames: 15
Frame Time: 0.008333
1.972515 15.593005 0.342642 96.755604 87.318870 138.028876 10.728429 -0.879327 8.625833 2.308296 -0.826095 -0.849057 -2.845592 -0.858205 -0.158317 5.764802 -9.992116 -6.187269 -0.615607 -0.030971 -0.224035 0.000000 0.000000 0.000000 11.607448 7.887075 2.376998 -72.846699 12.066065 26.514624 -0.205629 -83.295562 0.055342 -12.782102 1.798192 -0.179910 0.221675 0.219897 0.000000 0.000000 0.000000 0.000000 0.000000 0.000000 0.000000 -2.907375 -4.291651 -0.349186 58.697442 14.784828 2.731042 179.491357 78.379497 179.977758 -3.437756 5.280228 -0.178457 0.089106 -0.531553 -0.000000 0.000000 0.000000 0.000000 0.000000 0.000000 0.000000 
2.148116 15.611816 0.353385 102.403084 87.634068 143.760758 10.604544 -0.750472 8.891084 2.318193 -0.656251 -0.776331 -2.707669 -0.691806 -0.166386 5.541999 -9.973698 -6.144388 -0.501879 -0.022947 -0.218996 0.000000 0.000000 0.000000 11.406065 8.002448 2.399976 -72.409293 13.349526 27.117609 -0.197351 -83.449365 0.053820 -12.721181 1.809516 -0.181047 0.223083 0.213912 0.000000 0.000000 0.000000 0.000000 0.000000 0.000000 0.000000 -3.529088 -4.178028 -0.324157 56.923023 15.207754 2.550399 179.434957 77.313526 179.977258 -3.529103 5.165935 -0.179962 0.096352 -0.533472 -0.000000 0.000000 0.000000 0.000000 0.000000 0.000000 0.000000 
2.328107 15.627270 0.362111 109.715432 88.065294 151.128078 10.534745 -0.582892 9.141672 2.334105 -0.453391 -0.705719 -2.579320 -0.493125 -0.170594 5.338755 -9.975342 -6.120991 -0.400454 -0.015610 -0.217794 0.000000 0.000000 0.000000 11.215785 8.157180 2.410088 -71.963606 14.661992 27.723000 -0.185505 -83.687996 0.052365 -12.666392 1.803462 -0.180291 0.225350 0.208354 0.000000 0.000000 0.000000 0.000000 0.000000 0.000000 0.000000 -4.061561 -4.071375 -0.281805 55.017983 15.572528 2.328939 179.377861 76.306065 179.976472 -3.666184 5.008066 -0.181963 0.105162 -0.533672 0.000000 0.000000 0.000000 0.000000 0.000000 0.000000 0.000000 
2.512753 15.639336 0.368817 118.745653 88.632090 160.184452 10.462359 -0.354409 9.381993 2.339878 -0.201533 -0.635514 -2.460777 -0.246644 -0.168068 5.157186 -10.000692 -6.115406 -0.311690 -0.008999 -0.219925 0.000000 0.000000 0.000000 11.040890 8.363613 2.406724 -71.512072 15.988836 28.335051 -0.171477 -83.992541 0.050950 -12.625948 1.778991 -0.177744 0.228565 0.202983 0.000000 0.000000 0.000000 0.000000 0.000000 0.000000 0.000000 -4.497924 -3.969907 -0.222239 53.004707 15.897125 2.083882 179.320226 75.371910 179.975614 -3.818732 4.819525 -0.183358 0.114809 -0.532347 -0.000000 0.000000 0.000000 0.000000 0.000000 0.000000 0.000000 
2.702270 15.648045 0.373591 128.982712 89.305984 170.418164 10.275676 -0.059713 9.608939 2.309628 0.097643 -0.567084 -2.347437 0.045869 -0.157146 4.999331 -10.052294 -6.125876 -0.234652 -0.003049 -0.224969 0.000000 0.000000 0.000000 10.887968 8.623571 2.389868 -71.055794 17.313085 28.956873 -0.156522 -84.345566 0.049535 -12.607194 1.735870 -0.173307 0.232683 0.197568 0.000000 0.000000 0.000000 0.000000 0.000000 0.000000 0.000000 -4.836942 -3.879963 -0.146425 50.916240 16.194396 1.829881 179.262853 74.523129 179.974870 -3.959385 4.615700 -0.182947 0.124465 -0.529802 -0.000000 0.000000 0.000000 0.000000 0.000000 0.000000 0.000000 
2.896728 15.653555 0.376603 139.370772 89.972008 -179.233339 9.882806 0.262168 9.802270 2.228887 0.405641 -0.507379 -2.230982 0.346886 -0.137299 4.868268 -10.133217 -6.152238 -0.167193 0.002420 -0.232902 0.000000 0.000000 0.000000 10.765705 8.920638 2.360624 -70.599474 18.609700 29.592921 -0.141682 -84.728132 0.048111 -12.616402 1.674630 -0.167278 0.237430 0.192039 0.000000 0.000000 0.000000 0.000000 0.000000 0.000000 0.000000 -5.083729 -3.825960 -0.057650 48.791654 16.466231 1.579397 179.207675 73.767920 179.974379 -4.067485 4.413350 -0.180632 0.133288 -0.526374 -0.000000 0.000000 0.000000 0.000000 0.000000 0.000000 0.000000 
3.096088 15.656092 0.378184 -31.241261 89.528318 10.067850 9.319823 0.542489 9.938062 2.115946 0.666372 -0.464207 -2.106911 0.602101 -0.109793 4.767118 -10.244558 -6.194817 -0.107022 0.007580 -0.243680 0.000000 0.000000 0.000000 10.680425 9.225388 2.321349 -70.154288 19.856371 30.241791 -0.127382 -85.124430 0.046723 -12.656902 1.597744 -0.159853 0.242481 0.186569 -0.000000 0.000000 0.000000 0.000000 0.000000 0.000000 0.000000 -5.249779 -3.835563 0.038727 46.666971 16.705993 1.344016 179.157102 73.107910 179.974211 -4.131947 4.225604 -0.176516 0.140661 -0.522334 -0.000000 0.000000 0.000000 0.000000 0.000000 0.000000 0.000000 
3.300283 15.655914 0.378723 -23.464194 89.276885 17.705262 8.715607 0.743268 10.012159 2.004087 0.854852 -0.438602 -1.978592 0.787469 -0.075875 4.696728 -10.387014 -6.253723 -0.052092 0.012567 -0.257236 0.000000 0.000000 0.000000 10.636469 9.522407 2.274875 -69.735215 21.038715 30.895097 -0.113798 -85.520338 0.045419 -12.728541 1.507436 -0.151228 0.247691 0.181383 -0.000000 0.000000 0.000000 0.000000 0.000000 0.000000 0.000000 -5.351140 -3.917672 0.137580 44.577515 16.910608 1.137730 179.113019 72.544420 179.974379 -4.150157 4.061988 -0.171203 0.146295 -0.517953 -0.000000 0.000000 0.000000 0.000000 0.000000 0.000000 0.000000 
3.509172 15.653278 0.378717 -17.334335 89.255509 23.641998 8.166282 0.871552 10.038959 1.912071 0.981729 -0.426364 -1.852219 0.913257 -0.037223 4.656362 -10.559175 -6.327224 -0.000491 0.017488 -0.273185 0.000000 0.000000 0.000000 10.637502 9.811187 2.223729 -69.354545 22.152368 31.537609 -0.100958 -85.908364 0.044209 -12.827902 1.406588 -0.141603 0.253079 0.176565 -0.000000 0.000000 0.000000 0.000000 0.000000 0.000000 0.000000 -5.404742 -4.061152 0.235406 42.560885 17.082958 0.977327 179.076233 72.073684 179.974831 -4.127977 3.925743 -0.165194 0.150224 -0.513494 -0.000000 0.000000 0.000000 0.000000 0.000000 0.000000 0.000000 
3.722628 15.648408 0.378646 -12.564497 89.400893 28.166485 7.697020 0.951533 10.036578 1.841001 1.068583 -0.422957 -1.732136 1.000257 0.003660 4.644892 -10.756595 -6.412424 0.049566 0.022438 -0.290968 0.000000 0.000000 0.000000 10.686747 10.094793 2.170044 -69.021511 23.201739 32.150103 -0.088806 -86.286820 0.043075 -12.948567 1.298370 -0.130976 0.258661 0.172081 -0.000000 0.000000 0.000000 0.000000 0.000000 0.000000 0.000000 -5.425420 -4.247432 0.330094 40.656164 17.225584 0.880140 179.047013 71.691050 179.975474 -4.076387 3.814009 -0.158990 0.152664 -0.509118 -0.000000 0.000000 0.000000 0.000000 0.000000 0.000000 0.000000 
3.940558 15.641419 0.378980 -8.792623 89.649450 31.640098 7.291242 1.004105 10.019520 1.783892 1.132894 -0.425213 -1.620358 1.065416 0.044444 4.661558 -10.974015 -6.506410 0.099848 0.027519 -0.310039 0.000000 0.000000 0.000000 10.787605 10.376500 2.115877 -68.742730 24.190987 32.716123 -0.077236 -86.656698 0.041983 -13.082696 1.185320 -0.119748 0.264381 0.167870 -0.000000 0.000000 0.000000 0.000000 0.000000 0.000000 0.000000 -5.426903 -4.460243 0.419526 38.901901 17.339827 0.863462 179.025086 71.385488 179.976205 -4.007310 3.720695 -0.152890 0.153890 -0.504919 -0.000000 0.000000 0.000000 0.000000 0.000000 0.000000 0.000000 
4.162968 15.632332 0.380129 -5.678908 89.948575 34.401494 6.919082 1.042790 9.998631 1.732169 1.185783 -0.431275 -1.517747 1.119645 0.082136 4.705114 -11.203510 -6.605678 0.151467 0.032774 -0.329634 0.000000 0.000000 0.000000 10.938707 10.654345 2.062707 -68.521504 25.131826 33.217566 -0.065882 -87.025429 0.040908 -13.221370 1.070385 -0.108019 0.270158 0.163878 -0.000000 0.000000 0.000000 0.000000 0.000000 0.000000 0.000000 -5.419837 -4.684181 0.502435 37.328228 17.424758 0.943055 179.009810 71.145907 179.976931 -3.931534 3.635955 -0.146893 0.154211 -0.500844 -0.000000 0.000000 0.000000 0.000000 0.000000 0.000000 0.000000 
4.389972 15.620980 0.382358 177.067098 89.743457 -143.260406 6.551101 1.076286 9.980763 1.678152 1.234484 -0.439952 -1.424739 1.170141 0.115088 4.773577 -11.437698 -6.707337 0.205226 0.038228 -0.349087 0.000000 0.000000 0.000000 11.137919 10.929828 2.011780 -68.358619 26.033007 33.643108 -0.054420 -87.399745 0.039826 -13.356696 0.955719 -0.095988 0.275884 0.160060 0.000000 0.000000 0.000000 0.000000 0.000000 0.000000 0.000000 -5.414210 -4.907211 0.577021 35.961879 17.479925 1.132579 179.000084 70.956791 179.977608 -3.853981 3.552417 -0.141099 0.153805 -0.496865 -0.000000 0.000000 0.000000 0.000000 0.000000 0.000000 0.000000 
4.621846 15.606988 0.385730 179.693724 89.461215 -141.095434 6.163878 1.110268 9.967393 1.615947 1.283660 -0.451308 -1.341693 1.221617 0.141627 4.861033 -11.668087 -6.807242 0.261775 0.043861 -0.367251 0.000000 0.000000 0.000000 11.375967 11.201426 1.963399 -68.251193 26.910371 33.981226 -0.042493 -87.788174 0.038720 -13.482752 0.840725 -0.083454 0.281483 0.156418 0.000000 0.000000 0.000000 0.000000 0.000000 0.000000 0.000000 -5.423774 -5.117840 0.641273 34.830549 17.503766 1.444284 178.994686 70.805559 179.978248 -3.772731 3.467450 -0.135106 0.152695 -0.493013 -0.000000 0.000000 0.000000 0.000000 0.000000 0.000000 0.000000 
4.858771 15.589962 0.390552 -177.608024 89.226034 -138.916612 5.735857 1.147435 9.963761 1.539975 1.335618 -0.463281 -1.269985 1.276455 0.163766 4.971946 -11.891702 -6.906584 0.319249 0.049561 -0.384564 0.000000 0.000000 0.000000 11.650837 11.481832 1.918168 -68.187687 27.760989 34.238869 -0.029486 -88.202993 0.037591 -13.594892 0.734945 -0.071819 0.286903 0.152789 0.000000 0.000000 0.000000 0.000000 0.000000 0.000000 0.000000 -5.435013 -5.313224 0.696014 33.920122 17.507681 1.882315 178.991650 70.676414 179.978914 -3.679933 3.373252 -0.128517 0.150836 -0.489089 -0.000000 0.000000 0.000000 0.000000 0.000000 0.000000 0.000000 
